<?xml version="1.0" encoding="utf-8"?>
<!-- Generator: Adobe Illustrator 24.1.2, SVG Export Plug-In . SVG Version: 6.00 Build 0)  -->
<svg version="1.1" id="Layer_1" xmlns="http://www.w3.org/2000/svg" xmlns:xlink="http://www.w3.org/1999/xlink" x="0px" y="0px"
	 viewBox="0 0 159 161" style="enable-background:new 0 0 159 161;" xml:space="preserve">
<style type="text/css">
	.st0{fill:#F5F6F8;}
</style>
<g>
	<g id="svg_3" transform="rotate(28.2451 203.107 198.766)">
		<path id="svg_4" class="st0" d="M53,167.6c-0.1,0-0.2,0-0.3,0c-3.8,0.7-5.9,4.7-6.2,8.3c-0.4,3.3,1,7.4,4.5,8.2
			c0.5,0.1,1,0.1,1.5-0.1c4.2-1.4,6.1-6.5,5.5-10.8C57.9,170.5,55.9,167.6,53,167.6z M36.9,167.8c-2.4,0.1-4.2,2.5-4.6,4.8
			c-0.8,4.5,1.2,10.1,5.9,11.6c0.4,0.1,0.9,0.1,1.3,0c3.1-0.5,4.5-4.1,4.3-7c-0.1-3.8-2-8.2-5.9-9.3
			C37.6,167.8,37.2,167.8,36.9,167.8z M63.3,180.6c-4.1,0.2-6.9,4.4-7.3,8.2c-0.5,2.8,0.9,6.5,4.1,6.7c4.4-0.1,7.3-4.8,7.5-8.9
			C67.8,184.1,66.2,180.8,63.3,180.6z M27.5,181.6c-1.7,0-3.4,1-4,2.8c-1.5,4.8,1.5,10.9,6.5,11.9c2.1,0.4,3.9-1.3,4.4-3.2
			c1.1-4.2-1.2-9.1-5-11C28.9,181.7,28.2,181.6,27.5,181.6z M45.8,190.2c-3.4,0-6.9,1.8-9.1,4.4c-2.4,3-4.3,6.6-5.1,10.4
			c-0.9,2.8,1.2,5.9,4.1,6c3.5,0.1,6.5-2.3,10-2.5c3-0.5,5.6,1.1,8.3,2.1c2.3,1,5.4,0.6,6.5-1.9c0.9-2.5-0.4-5.2-1.5-7.4
			c-2.3-3.6-4.7-7.4-8.4-9.7C49.2,190.6,47.5,190.2,45.8,190.2z"/>
	</g>
	<g id="svg_7" transform="rotate(28.2451 258.943 114.289)">
		<path id="svg_8" class="st0" d="M108.8,83.1c-0.1,0-0.2,0-0.3,0c-3.8,0.7-5.9,4.7-6.2,8.3c-0.4,3.3,1,7.4,4.5,8.2
			c0.5,0.1,1,0.1,1.5-0.1c4.2-1.4,6.1-6.5,5.5-10.8C113.8,86.1,111.7,83.1,108.8,83.1z M92.7,83.3c-2.4,0.1-4.2,2.5-4.6,4.8
			c-0.8,4.5,1.2,10.1,5.9,11.6c0.4,0.1,0.9,0.1,1.3,0c3.1-0.5,4.5-4.1,4.3-7c-0.1-3.8-2-8.2-5.9-9.3C93.4,83.3,93.1,83.3,92.7,83.3z
			 M119.1,96.2c-4.1,0.2-6.9,4.4-7.3,8.2c-0.5,2.8,0.9,6.5,4.1,6.7c4.4-0.1,7.3-4.8,7.5-8.9C123.6,99.6,122.1,96.3,119.1,96.2z
			 M83.4,97.1c-1.7,0-3.4,1-4,2.8c-1.5,4.8,1.5,10.9,6.5,11.9c2.1,0.4,3.9-1.3,4.4-3.2c1.1-4.2-1.2-9.1-5-11
			C84.7,97.3,84.1,97.1,83.4,97.1z M101.7,105.7c-3.4,0-6.9,1.8-9.1,4.4c-2.4,3-4.3,6.6-5.1,10.4c-0.9,2.8,1.2,5.9,4.1,6
			c3.5,0.1,6.5-2.3,10-2.5c3-0.5,5.6,1.1,8.3,2.1c2.3,1,5.4,0.6,6.5-1.9c0.9-2.5-0.4-5.2-1.5-7.4c-2.3-3.6-4.7-7.4-8.4-9.7
			C105,106.1,103.3,105.7,101.7,105.7z"/>
	</g>
	<g id="svg_9" transform="rotate(28.2451 174.943 132.288)">
		<path id="svg_10" class="st0" d="M24.8,101.1c-0.1,0-0.2,0-0.3,0c-3.8,0.7-5.9,4.7-6.2,8.3c-0.4,3.3,1,7.4,4.5,8.2
			c0.5,0.1,1,0.1,1.5-0.1c4.2-1.4,6.1-6.5,5.5-10.8C29.8,104.1,27.7,101.1,24.8,101.1z M8.7,101.3c-2.4,0.1-4.2,2.5-4.6,4.8
			c-0.8,4.5,1.2,10.1,5.9,11.6c0.4,0.1,0.9,0.1,1.3,0c3.1-0.5,4.5-4.1,4.3-7c-0.1-3.8-2-8.2-5.9-9.3C9.4,101.3,9.1,101.3,8.7,101.3z
			 M35.1,114.2c-4.1,0.2-6.9,4.4-7.3,8.2c-0.5,2.8,0.9,6.5,4.1,6.7c4.4-0.1,7.3-4.8,7.5-8.9C39.6,117.6,38.1,114.3,35.1,114.2z
			 M-0.6,115.1c-1.7,0-3.4,1-4,2.8c-1.5,4.8,1.5,10.9,6.5,11.9c2.1,0.4,3.9-1.3,4.4-3.2c1.1-4.2-1.2-9.1-5-11
			C0.7,115.3,0.1,115.1-0.6,115.1z M17.7,123.7c-3.4,0-6.9,1.8-9.1,4.4c-2.4,3-4.3,6.6-5.1,10.4c-0.9,2.8,1.2,5.9,4.1,6
			c3.5,0.1,6.5-2.3,10-2.5c3-0.5,5.6,1.1,8.3,2.1c2.3,1,5.4,0.6,6.5-1.9c0.9-2.5-0.4-5.2-1.5-7.4c-2.3-3.6-4.7-7.4-8.4-9.7
			C21,124.1,19.3,123.7,17.7,123.7z"/>
	</g>
</g>
</svg>
